<svg xmlns="http://www.w3.org/2000/svg" viewBox="0 0 1400 560"><defs><linearGradient id="bg" x1="0" x2="1"><stop stop-color="#03132f"/><stop offset=".5" stop-color="#063a78"/><stop offset="1" stop-color="#03132f"/></linearGradient><radialGradient id="g"><stop stop-color="#ffc400" stop-opacity=".35"/><stop offset="1" stop-color="#ffc400" stop-opacity="0"/></radialGradient></defs><rect width="1400" height="560" rx="34" fill="url(#bg)"/><circle cx="700" cy="400" r="400" fill="url(#g)"/><text x="700" y="82" text-anchor="middle" fill="#ffc400" font-family="Arial" font-weight="900" font-size="54" letter-spacing="8">CHIMYON</text><text x="700" y="125" text-anchor="middle" fill="white" font-family="Arial" font-weight="700" font-size="25" letter-spacing="13">SCHOOL</text><g fill="#071a38" stroke="#ffc400" stroke-width="3"><path d="M55 510v-115q0-90 80-90t80 90v115z"/><path d="M245 510v-135q0-100 88-100t88 100v135z"/><path d="M450 510v-155q0-110 95-110t95 110v155z"/><path d="M665 510v-175q0-120 105-120t105 120v175z"/><path d="M880 510v-155q0-110 95-110t95 110v155z"/><path d="M1085 510v-135q0-100 88-100t88 100v135z"/><path d="M1275 510v-115q0-90 70-90t70 90v115z"/></g><g fill="#f1c19a"><circle cx="135" cy="265" r="52"/><circle cx="333" cy="250" r="58"/><circle cx="545" cy="235" r="64"/><circle cx="770" cy="215" r="70"/><circle cx="975" cy="235" r="64"/><circle cx="1173" cy="250" r="58"/><circle cx="1345" cy="265" r="52"/></g><g fill="#0b1e3d"><path d="M78 270q20-80 60-80t60 80q-60-30-120 0z"/><path d="M270 255q22-90 63-90t63 90q-63-35-126 0z"/><path d="M478 240q25-100 67-100t67 100q-67-40-134 0z"/><path d="M695 220q28-110 75-110t75 110q-75-45-150 0z"/><path d="M908 240q25-100 67-100t67 100q-67-40-134 0z"/><path d="M1110 255q22-90 63-90t63 90q-63-35-126 0z"/><path d="M1285 270q20-80 60-80t60 80q-60-30-120 0z"/></g><g font-family="Arial" font-weight="800" font-size="21" fill="#ffc400" text-anchor="middle"><text x="135" y="535">BIOLOGIYA</text><text x="333" y="535">INGLIZ TILI</text><text x="545" y="535">TARIX</text><text x="770" y="535">MATEMATIKA</text><text x="975" y="535">ONA TILI</text><text x="1173" y="535">INGLIZ TILI</text><text x="1345" y="535">KIMYO</text></g></svg>